# xmcd
#
# Track frame offsets: 
#        150
#        11733
#        33257
#        62718
#        84925
#        113602
#        139224
#        169173
#        190681
#        224022
#        242409
#        270204
#        293936
#
# Disc length: 3963 seconds
#
# Revision: 0
# Processed by: cddbd v1.5.2PL0 Copyright (c) Steve Scherf et al.
# Submitted via: ExactAudioCopy v0.95b3
#
DISCID=af0f790d
DTITLE=Rush  - HiFi Buys Amphitheatre Atlanta GA - 2007-06-13 - Disc 1
DTITLE=FLAC
DYEAR=1900
DGENRE=
TTITLE0=Video Intro
TTITLE1=Limelight
TTITLE2=Digital Man
TTITLE3=Entre Nous
TTITLE4=Mission
TTITLE5=Freewill
TTITLE6=The Main Monkey Business
TTITLE7=The Larger Bowl
TTITLE8=Secret Touch
TTITLE9=Circumstances
TTITLE10=Beneath The Wheels
TTITLE11=Dreamtime
TTITLE12=Geddy Speaks and Intermission
EXTD=
EXTT0=
EXTT1=
EXTT2=
EXTT3=
EXTT4=
EXTT5=
EXTT6=
EXTT7=
EXTT8=
EXTT9=
EXTT10=
EXTT11=
EXTT12=
PLAYORDER=
